<mxfile host="app.diagrams.net" agent="Mozilla/5.0 (Windows NT 10.0; Win64; x64) AppleWebKit/537.36 (KHTML, like Gecko) Chrome/128.0.0.0 Safari/537.36" version="24.7.7">
  <diagram name="Page-1" id="8aYX_BorxFJqlAAEC2ZM">
    <mxGraphModel dx="1956" dy="1268" grid="0" gridSize="10" guides="1" tooltips="1" connect="1" arrows="1" fold="1" page="0" pageScale="1" pageWidth="850" pageHeight="1100" math="0" shadow="0">
      <root>
        <mxCell id="0" />
        <mxCell id="1" parent="0" />
        <mxCell id="4hQjekHiKJBVtk0LcPaB-21" style="edgeStyle=none;curved=1;rounded=0;orthogonalLoop=1;jettySize=auto;html=1;exitX=1;exitY=0;exitDx=0;exitDy=0;entryX=0;entryY=1;entryDx=0;entryDy=0;fontSize=12;startSize=8;endSize=8;" edge="1" parent="1" source="4hQjekHiKJBVtk0LcPaB-2" target="4hQjekHiKJBVtk0LcPaB-4">
          <mxGeometry relative="1" as="geometry" />
        </mxCell>
        <mxCell id="4hQjekHiKJBVtk0LcPaB-2" value="&lt;div&gt;Analisis&lt;/div&gt;&lt;div&gt;de requisitos&lt;/div&gt;" style="ellipse;whiteSpace=wrap;html=1;aspect=fixed;fillColor=#FF2A00;strokeColor=#FFFFFF;" vertex="1" parent="1">
          <mxGeometry x="23" y="-11" width="114" height="114" as="geometry" />
        </mxCell>
        <mxCell id="4hQjekHiKJBVtk0LcPaB-12" style="edgeStyle=none;curved=1;rounded=0;orthogonalLoop=1;jettySize=auto;html=1;entryX=0;entryY=1;entryDx=0;entryDy=0;fontSize=12;startSize=8;endSize=8;" edge="1" parent="1" source="4hQjekHiKJBVtk0LcPaB-3" target="4hQjekHiKJBVtk0LcPaB-6">
          <mxGeometry relative="1" as="geometry" />
        </mxCell>
        <mxCell id="4hQjekHiKJBVtk0LcPaB-3" value="Inicio" style="ellipse;whiteSpace=wrap;html=1;aspect=fixed;fillColor=#FF2A00;strokeColor=#FFFFFF;" vertex="1" parent="1">
          <mxGeometry x="-210" y="-11" width="114" height="114" as="geometry" />
        </mxCell>
        <mxCell id="4hQjekHiKJBVtk0LcPaB-15" style="edgeStyle=none;curved=1;rounded=0;orthogonalLoop=1;jettySize=auto;html=1;exitX=1;exitY=1;exitDx=0;exitDy=0;entryX=0;entryY=0;entryDx=0;entryDy=0;fontSize=12;startSize=8;endSize=8;" edge="1" parent="1" source="4hQjekHiKJBVtk0LcPaB-4" target="4hQjekHiKJBVtk0LcPaB-7">
          <mxGeometry relative="1" as="geometry" />
        </mxCell>
        <mxCell id="4hQjekHiKJBVtk0LcPaB-4" value="Planificacion&lt;div&gt;del proyecto&lt;/div&gt;" style="ellipse;whiteSpace=wrap;html=1;aspect=fixed;fillColor=#FF2A00;strokeColor=#FFFFFF;" vertex="1" parent="1">
          <mxGeometry x="147" y="-143" width="114" height="114" as="geometry" />
        </mxCell>
        <mxCell id="4hQjekHiKJBVtk0LcPaB-13" style="edgeStyle=none;curved=1;rounded=0;orthogonalLoop=1;jettySize=auto;html=1;exitX=1;exitY=1;exitDx=0;exitDy=0;entryX=0;entryY=0;entryDx=0;entryDy=0;fontSize=12;startSize=8;endSize=8;" edge="1" parent="1" source="4hQjekHiKJBVtk0LcPaB-6" target="4hQjekHiKJBVtk0LcPaB-2">
          <mxGeometry relative="1" as="geometry" />
        </mxCell>
        <mxCell id="4hQjekHiKJBVtk0LcPaB-6" value="Reunion&lt;div&gt;Inicial&lt;/div&gt;" style="ellipse;whiteSpace=wrap;html=1;aspect=fixed;fillColor=#FF2A00;strokeColor=#FFFFFF;" vertex="1" parent="1">
          <mxGeometry x="-96" y="-130" width="114" height="114" as="geometry" />
        </mxCell>
        <mxCell id="4hQjekHiKJBVtk0LcPaB-16" style="edgeStyle=none;curved=1;rounded=0;orthogonalLoop=1;jettySize=auto;html=1;exitX=1;exitY=0;exitDx=0;exitDy=0;entryX=0;entryY=1;entryDx=0;entryDy=0;fontSize=12;startSize=8;endSize=8;" edge="1" parent="1" source="4hQjekHiKJBVtk0LcPaB-7" target="4hQjekHiKJBVtk0LcPaB-8">
          <mxGeometry relative="1" as="geometry" />
        </mxCell>
        <mxCell id="4hQjekHiKJBVtk0LcPaB-7" value="Diseño de la&lt;div&gt;base de datos&lt;/div&gt;" style="ellipse;whiteSpace=wrap;html=1;aspect=fixed;fillColor=#FF2A00;strokeColor=#FFFFFF;" vertex="1" parent="1">
          <mxGeometry x="272" y="-11" width="114" height="114" as="geometry" />
        </mxCell>
        <mxCell id="4hQjekHiKJBVtk0LcPaB-17" style="edgeStyle=none;curved=1;rounded=0;orthogonalLoop=1;jettySize=auto;html=1;exitX=1;exitY=1;exitDx=0;exitDy=0;entryX=0;entryY=0;entryDx=0;entryDy=0;fontSize=12;startSize=8;endSize=8;" edge="1" parent="1" source="4hQjekHiKJBVtk0LcPaB-8" target="4hQjekHiKJBVtk0LcPaB-9">
          <mxGeometry relative="1" as="geometry" />
        </mxCell>
        <mxCell id="4hQjekHiKJBVtk0LcPaB-8" value="Diseño&lt;div&gt;de la interfaz de&lt;/div&gt;&lt;div&gt;usuario&lt;/div&gt;" style="ellipse;whiteSpace=wrap;html=1;aspect=fixed;fillColor=#FF2A00;strokeColor=#FFFFFF;" vertex="1" parent="1">
          <mxGeometry x="413" y="-159" width="114" height="114" as="geometry" />
        </mxCell>
        <mxCell id="4hQjekHiKJBVtk0LcPaB-18" style="edgeStyle=none;curved=1;rounded=0;orthogonalLoop=1;jettySize=auto;html=1;exitX=1;exitY=0;exitDx=0;exitDy=0;entryX=0;entryY=1;entryDx=0;entryDy=0;fontSize=12;startSize=8;endSize=8;" edge="1" parent="1" source="4hQjekHiKJBVtk0LcPaB-9" target="4hQjekHiKJBVtk0LcPaB-10">
          <mxGeometry relative="1" as="geometry" />
        </mxCell>
        <mxCell id="4hQjekHiKJBVtk0LcPaB-9" value="Configuracion del&lt;div&gt;entorno de desarrollo&lt;/div&gt;" style="ellipse;whiteSpace=wrap;html=1;aspect=fixed;fillColor=#FF2A00;strokeColor=#FFFFFF;" vertex="1" parent="1">
          <mxGeometry x="539" y="-11" width="114" height="114" as="geometry" />
        </mxCell>
        <mxCell id="4hQjekHiKJBVtk0LcPaB-19" style="edgeStyle=none;curved=1;rounded=0;orthogonalLoop=1;jettySize=auto;html=1;exitX=1;exitY=1;exitDx=0;exitDy=0;entryX=0;entryY=0;entryDx=0;entryDy=0;fontSize=12;startSize=8;endSize=8;" edge="1" parent="1" source="4hQjekHiKJBVtk0LcPaB-10" target="4hQjekHiKJBVtk0LcPaB-11">
          <mxGeometry relative="1" as="geometry" />
        </mxCell>
        <mxCell id="4hQjekHiKJBVtk0LcPaB-10" value="Pruebas" style="ellipse;whiteSpace=wrap;html=1;aspect=fixed;fillColor=#FF2A00;strokeColor=#FFFFFF;" vertex="1" parent="1">
          <mxGeometry x="672" y="-147" width="114" height="114" as="geometry" />
        </mxCell>
        <mxCell id="4hQjekHiKJBVtk0LcPaB-11" value="Fin" style="ellipse;whiteSpace=wrap;html=1;aspect=fixed;fillColor=#FF2A00;strokeColor=#FFFFFF;" vertex="1" parent="1">
          <mxGeometry x="805" y="-13" width="114" height="114" as="geometry" />
        </mxCell>
        <mxCell id="4hQjekHiKJBVtk0LcPaB-29" value="" style="group" vertex="1" connectable="0" parent="1">
          <mxGeometry x="-210" y="108" width="111" height="63" as="geometry" />
        </mxCell>
        <mxCell id="4hQjekHiKJBVtk0LcPaB-22" value="" style="endArrow=none;html=1;rounded=0;fontSize=12;startSize=8;endSize=8;curved=1;" edge="1" parent="4hQjekHiKJBVtk0LcPaB-29">
          <mxGeometry width="50" height="50" relative="1" as="geometry">
            <mxPoint x="56" y="63" as="sourcePoint" />
            <mxPoint x="56" as="targetPoint" />
          </mxGeometry>
        </mxCell>
        <mxCell id="4hQjekHiKJBVtk0LcPaB-23" value="" style="endArrow=none;html=1;rounded=0;fontSize=12;startSize=8;endSize=8;curved=1;" edge="1" parent="4hQjekHiKJBVtk0LcPaB-29">
          <mxGeometry width="50" height="50" relative="1" as="geometry">
            <mxPoint x="10" y="32" as="sourcePoint" />
            <mxPoint x="102" y="32" as="targetPoint" />
          </mxGeometry>
        </mxCell>
        <mxCell id="4hQjekHiKJBVtk0LcPaB-24" value="0" style="text;html=1;align=center;verticalAlign=middle;whiteSpace=wrap;rounded=0;fontSize=16;" vertex="1" parent="4hQjekHiKJBVtk0LcPaB-29">
          <mxGeometry y="1" width="60" height="30" as="geometry" />
        </mxCell>
        <mxCell id="4hQjekHiKJBVtk0LcPaB-25" value="0" style="text;html=1;align=center;verticalAlign=middle;whiteSpace=wrap;rounded=0;fontSize=16;" vertex="1" parent="4hQjekHiKJBVtk0LcPaB-29">
          <mxGeometry x="51" y="1" width="60" height="30" as="geometry" />
        </mxCell>
        <mxCell id="4hQjekHiKJBVtk0LcPaB-27" value="0" style="text;html=1;align=center;verticalAlign=middle;whiteSpace=wrap;rounded=0;fontSize=16;" vertex="1" parent="4hQjekHiKJBVtk0LcPaB-29">
          <mxGeometry y="31" width="60" height="30" as="geometry" />
        </mxCell>
        <mxCell id="4hQjekHiKJBVtk0LcPaB-28" value="0" style="text;html=1;align=center;verticalAlign=middle;whiteSpace=wrap;rounded=0;fontSize=16;" vertex="1" parent="4hQjekHiKJBVtk0LcPaB-29">
          <mxGeometry x="51" y="31" width="60" height="30" as="geometry" />
        </mxCell>
        <mxCell id="4hQjekHiKJBVtk0LcPaB-30" value="" style="endArrow=none;html=1;rounded=0;fontSize=12;startSize=8;endSize=8;curved=1;" edge="1" parent="1">
          <mxGeometry width="50" height="50" relative="1" as="geometry">
            <mxPoint x="-37" y="-127" as="sourcePoint" />
            <mxPoint x="-37" y="-190" as="targetPoint" />
          </mxGeometry>
        </mxCell>
        <mxCell id="4hQjekHiKJBVtk0LcPaB-31" value="" style="endArrow=none;html=1;rounded=0;fontSize=12;startSize=8;endSize=8;curved=1;" edge="1" parent="1">
          <mxGeometry width="50" height="50" relative="1" as="geometry">
            <mxPoint x="-83" y="-158" as="sourcePoint" />
            <mxPoint x="9" y="-158" as="targetPoint" />
          </mxGeometry>
        </mxCell>
        <mxCell id="4hQjekHiKJBVtk0LcPaB-32" value="0" style="text;html=1;align=center;verticalAlign=middle;whiteSpace=wrap;rounded=0;fontSize=16;" vertex="1" parent="1">
          <mxGeometry x="-93" y="-189" width="60" height="30" as="geometry" />
        </mxCell>
        <mxCell id="4hQjekHiKJBVtk0LcPaB-33" value="0.125" style="text;html=1;align=center;verticalAlign=middle;whiteSpace=wrap;rounded=0;fontSize=16;" vertex="1" parent="1">
          <mxGeometry x="-42" y="-189" width="60" height="30" as="geometry" />
        </mxCell>
        <mxCell id="4hQjekHiKJBVtk0LcPaB-34" value="0" style="text;html=1;align=center;verticalAlign=middle;whiteSpace=wrap;rounded=0;fontSize=16;" vertex="1" parent="1">
          <mxGeometry x="-93" y="-159" width="60" height="30" as="geometry" />
        </mxCell>
        <mxCell id="4hQjekHiKJBVtk0LcPaB-35" value="0.125" style="text;html=1;align=center;verticalAlign=middle;whiteSpace=wrap;rounded=0;fontSize=16;" vertex="1" parent="1">
          <mxGeometry x="-42" y="-159" width="60" height="30" as="geometry" />
        </mxCell>
        <mxCell id="4hQjekHiKJBVtk0LcPaB-36" value="0.125" style="text;html=1;align=center;verticalAlign=middle;whiteSpace=wrap;rounded=0;fontSize=16;" vertex="1" parent="1">
          <mxGeometry x="-37" y="-117" width="60" height="30" as="geometry" />
        </mxCell>
        <mxCell id="4hQjekHiKJBVtk0LcPaB-37" value="" style="endArrow=none;html=1;rounded=0;fontSize=12;startSize=8;endSize=8;curved=1;" edge="1" parent="1">
          <mxGeometry width="50" height="50" relative="1" as="geometry">
            <mxPoint x="81" y="169" as="sourcePoint" />
            <mxPoint x="81" y="106" as="targetPoint" />
          </mxGeometry>
        </mxCell>
        <mxCell id="4hQjekHiKJBVtk0LcPaB-38" value="" style="endArrow=none;html=1;rounded=0;fontSize=12;startSize=8;endSize=8;curved=1;" edge="1" parent="1">
          <mxGeometry width="50" height="50" relative="1" as="geometry">
            <mxPoint x="35" y="138" as="sourcePoint" />
            <mxPoint x="127" y="138" as="targetPoint" />
          </mxGeometry>
        </mxCell>
        <mxCell id="4hQjekHiKJBVtk0LcPaB-39" value="0.125" style="text;html=1;align=center;verticalAlign=middle;whiteSpace=wrap;rounded=0;fontSize=16;" vertex="1" parent="1">
          <mxGeometry x="25" y="107" width="60" height="30" as="geometry" />
        </mxCell>
        <mxCell id="4hQjekHiKJBVtk0LcPaB-40" value="1.125" style="text;html=1;align=center;verticalAlign=middle;whiteSpace=wrap;rounded=0;fontSize=16;" vertex="1" parent="1">
          <mxGeometry x="76" y="107" width="60" height="30" as="geometry" />
        </mxCell>
        <mxCell id="4hQjekHiKJBVtk0LcPaB-41" value="0.125" style="text;html=1;align=center;verticalAlign=middle;whiteSpace=wrap;rounded=0;fontSize=16;" vertex="1" parent="1">
          <mxGeometry x="25" y="137" width="60" height="30" as="geometry" />
        </mxCell>
        <mxCell id="4hQjekHiKJBVtk0LcPaB-42" value="1.125" style="text;html=1;align=center;verticalAlign=middle;whiteSpace=wrap;rounded=0;fontSize=16;" vertex="1" parent="1">
          <mxGeometry x="76" y="137" width="60" height="30" as="geometry" />
        </mxCell>
        <mxCell id="4hQjekHiKJBVtk0LcPaB-43" value="1" style="text;html=1;align=center;verticalAlign=middle;whiteSpace=wrap;rounded=0;fontSize=16;" vertex="1" parent="1">
          <mxGeometry x="64" y="65" width="60" height="30" as="geometry" />
        </mxCell>
        <mxCell id="4hQjekHiKJBVtk0LcPaB-44" value="2" style="text;html=1;align=center;verticalAlign=middle;whiteSpace=wrap;rounded=0;fontSize=16;" vertex="1" parent="1">
          <mxGeometry x="210" y="-135" width="60" height="30" as="geometry" />
        </mxCell>
        <mxCell id="4hQjekHiKJBVtk0LcPaB-45" value="" style="endArrow=none;html=1;rounded=0;fontSize=12;startSize=8;endSize=8;curved=1;" edge="1" parent="1">
          <mxGeometry width="50" height="50" relative="1" as="geometry">
            <mxPoint x="206" y="-147" as="sourcePoint" />
            <mxPoint x="206" y="-210" as="targetPoint" />
          </mxGeometry>
        </mxCell>
        <mxCell id="4hQjekHiKJBVtk0LcPaB-46" value="" style="endArrow=none;html=1;rounded=0;fontSize=12;startSize=8;endSize=8;curved=1;" edge="1" parent="1">
          <mxGeometry width="50" height="50" relative="1" as="geometry">
            <mxPoint x="160" y="-178" as="sourcePoint" />
            <mxPoint x="252" y="-178" as="targetPoint" />
          </mxGeometry>
        </mxCell>
        <mxCell id="4hQjekHiKJBVtk0LcPaB-47" value="1.125" style="text;html=1;align=center;verticalAlign=middle;whiteSpace=wrap;rounded=0;fontSize=16;" vertex="1" parent="1">
          <mxGeometry x="150" y="-209" width="60" height="30" as="geometry" />
        </mxCell>
        <mxCell id="4hQjekHiKJBVtk0LcPaB-48" value="3.125" style="text;html=1;align=center;verticalAlign=middle;whiteSpace=wrap;rounded=0;fontSize=16;" vertex="1" parent="1">
          <mxGeometry x="201" y="-209" width="60" height="30" as="geometry" />
        </mxCell>
        <mxCell id="4hQjekHiKJBVtk0LcPaB-49" value="1.125" style="text;html=1;align=center;verticalAlign=middle;whiteSpace=wrap;rounded=0;fontSize=16;" vertex="1" parent="1">
          <mxGeometry x="150" y="-179" width="60" height="30" as="geometry" />
        </mxCell>
        <mxCell id="4hQjekHiKJBVtk0LcPaB-50" value="3.125" style="text;html=1;align=center;verticalAlign=middle;whiteSpace=wrap;rounded=0;fontSize=16;" vertex="1" parent="1">
          <mxGeometry x="201" y="-179" width="60" height="30" as="geometry" />
        </mxCell>
        <mxCell id="4hQjekHiKJBVtk0LcPaB-51" value="3" style="text;html=1;align=center;verticalAlign=middle;whiteSpace=wrap;rounded=0;fontSize=16;" vertex="1" parent="1">
          <mxGeometry x="322" y="68" width="60" height="30" as="geometry" />
        </mxCell>
        <mxCell id="4hQjekHiKJBVtk0LcPaB-52" value="" style="endArrow=none;html=1;rounded=0;fontSize=12;startSize=8;endSize=8;curved=1;" edge="1" parent="1">
          <mxGeometry width="50" height="50" relative="1" as="geometry">
            <mxPoint x="330" y="171" as="sourcePoint" />
            <mxPoint x="330" y="108" as="targetPoint" />
          </mxGeometry>
        </mxCell>
        <mxCell id="4hQjekHiKJBVtk0LcPaB-53" value="" style="endArrow=none;html=1;rounded=0;fontSize=12;startSize=8;endSize=8;curved=1;" edge="1" parent="1">
          <mxGeometry width="50" height="50" relative="1" as="geometry">
            <mxPoint x="284" y="140" as="sourcePoint" />
            <mxPoint x="376" y="140" as="targetPoint" />
          </mxGeometry>
        </mxCell>
        <mxCell id="4hQjekHiKJBVtk0LcPaB-54" value="3.125" style="text;html=1;align=center;verticalAlign=middle;whiteSpace=wrap;rounded=0;fontSize=16;" vertex="1" parent="1">
          <mxGeometry x="274" y="109" width="60" height="30" as="geometry" />
        </mxCell>
        <mxCell id="4hQjekHiKJBVtk0LcPaB-55" value="6.125" style="text;html=1;align=center;verticalAlign=middle;whiteSpace=wrap;rounded=0;fontSize=16;" vertex="1" parent="1">
          <mxGeometry x="325" y="109" width="60" height="30" as="geometry" />
        </mxCell>
        <mxCell id="4hQjekHiKJBVtk0LcPaB-56" value="3.125" style="text;html=1;align=center;verticalAlign=middle;whiteSpace=wrap;rounded=0;fontSize=16;" vertex="1" parent="1">
          <mxGeometry x="274" y="139" width="60" height="30" as="geometry" />
        </mxCell>
        <mxCell id="4hQjekHiKJBVtk0LcPaB-57" value="6.125" style="text;html=1;align=center;verticalAlign=middle;whiteSpace=wrap;rounded=0;fontSize=16;" vertex="1" parent="1">
          <mxGeometry x="325" y="139" width="60" height="30" as="geometry" />
        </mxCell>
        <mxCell id="4hQjekHiKJBVtk0LcPaB-58" value="7" style="text;html=1;align=center;verticalAlign=middle;whiteSpace=wrap;rounded=0;fontSize=16;" vertex="1" parent="1">
          <mxGeometry x="470" y="-154" width="60" height="30" as="geometry" />
        </mxCell>
        <mxCell id="4hQjekHiKJBVtk0LcPaB-59" value="" style="endArrow=none;html=1;rounded=0;fontSize=12;startSize=8;endSize=8;curved=1;" edge="1" parent="1">
          <mxGeometry width="50" height="50" relative="1" as="geometry">
            <mxPoint x="469" y="-159" as="sourcePoint" />
            <mxPoint x="469" y="-222" as="targetPoint" />
          </mxGeometry>
        </mxCell>
        <mxCell id="4hQjekHiKJBVtk0LcPaB-60" value="" style="endArrow=none;html=1;rounded=0;fontSize=12;startSize=8;endSize=8;curved=1;" edge="1" parent="1">
          <mxGeometry width="50" height="50" relative="1" as="geometry">
            <mxPoint x="423" y="-190" as="sourcePoint" />
            <mxPoint x="515" y="-190" as="targetPoint" />
          </mxGeometry>
        </mxCell>
        <mxCell id="4hQjekHiKJBVtk0LcPaB-61" value="6.125" style="text;html=1;align=center;verticalAlign=middle;whiteSpace=wrap;rounded=0;fontSize=16;" vertex="1" parent="1">
          <mxGeometry x="413" y="-221" width="60" height="30" as="geometry" />
        </mxCell>
        <mxCell id="4hQjekHiKJBVtk0LcPaB-62" value="13.125" style="text;html=1;align=center;verticalAlign=middle;whiteSpace=wrap;rounded=0;fontSize=16;" vertex="1" parent="1">
          <mxGeometry x="464" y="-221" width="60" height="30" as="geometry" />
        </mxCell>
        <mxCell id="4hQjekHiKJBVtk0LcPaB-63" value="6.125" style="text;html=1;align=center;verticalAlign=middle;whiteSpace=wrap;rounded=0;fontSize=16;" vertex="1" parent="1">
          <mxGeometry x="413" y="-191" width="60" height="30" as="geometry" />
        </mxCell>
        <mxCell id="4hQjekHiKJBVtk0LcPaB-64" value="13.125" style="text;html=1;align=center;verticalAlign=middle;whiteSpace=wrap;rounded=0;fontSize=16;" vertex="1" parent="1">
          <mxGeometry x="464" y="-191" width="60" height="30" as="geometry" />
        </mxCell>
        <mxCell id="4hQjekHiKJBVtk0LcPaB-65" value="7" style="text;html=1;align=center;verticalAlign=middle;whiteSpace=wrap;rounded=0;fontSize=16;" vertex="1" parent="1">
          <mxGeometry x="587" y="68" width="60" height="30" as="geometry" />
        </mxCell>
        <mxCell id="4hQjekHiKJBVtk0LcPaB-66" value="" style="endArrow=none;html=1;rounded=0;fontSize=12;startSize=8;endSize=8;curved=1;" edge="1" parent="1">
          <mxGeometry width="50" height="50" relative="1" as="geometry">
            <mxPoint x="595" y="167" as="sourcePoint" />
            <mxPoint x="595" y="104" as="targetPoint" />
          </mxGeometry>
        </mxCell>
        <mxCell id="4hQjekHiKJBVtk0LcPaB-67" value="" style="endArrow=none;html=1;rounded=0;fontSize=12;startSize=8;endSize=8;curved=1;" edge="1" parent="1">
          <mxGeometry width="50" height="50" relative="1" as="geometry">
            <mxPoint x="549" y="136" as="sourcePoint" />
            <mxPoint x="641" y="136" as="targetPoint" />
          </mxGeometry>
        </mxCell>
        <mxCell id="4hQjekHiKJBVtk0LcPaB-68" value="13.125" style="text;html=1;align=center;verticalAlign=middle;whiteSpace=wrap;rounded=0;fontSize=16;" vertex="1" parent="1">
          <mxGeometry x="539" y="105" width="60" height="30" as="geometry" />
        </mxCell>
        <mxCell id="4hQjekHiKJBVtk0LcPaB-69" value="20.125" style="text;html=1;align=center;verticalAlign=middle;whiteSpace=wrap;rounded=0;fontSize=16;" vertex="1" parent="1">
          <mxGeometry x="590" y="105" width="60" height="30" as="geometry" />
        </mxCell>
        <mxCell id="4hQjekHiKJBVtk0LcPaB-70" value="13.125" style="text;html=1;align=center;verticalAlign=middle;whiteSpace=wrap;rounded=0;fontSize=16;" vertex="1" parent="1">
          <mxGeometry x="539" y="135" width="60" height="30" as="geometry" />
        </mxCell>
        <mxCell id="4hQjekHiKJBVtk0LcPaB-71" value="20.125" style="text;html=1;align=center;verticalAlign=middle;whiteSpace=wrap;rounded=0;fontSize=16;" vertex="1" parent="1">
          <mxGeometry x="590" y="135" width="60" height="30" as="geometry" />
        </mxCell>
        <mxCell id="4hQjekHiKJBVtk0LcPaB-72" value="1" style="text;html=1;align=center;verticalAlign=middle;whiteSpace=wrap;rounded=0;fontSize=16;" vertex="1" parent="1">
          <mxGeometry x="726" y="-143" width="60" height="30" as="geometry" />
        </mxCell>
        <mxCell id="4hQjekHiKJBVtk0LcPaB-73" value="" style="endArrow=none;html=1;rounded=0;fontSize=12;startSize=8;endSize=8;curved=1;" edge="1" parent="1">
          <mxGeometry width="50" height="50" relative="1" as="geometry">
            <mxPoint x="728" y="-146" as="sourcePoint" />
            <mxPoint x="728" y="-209" as="targetPoint" />
          </mxGeometry>
        </mxCell>
        <mxCell id="4hQjekHiKJBVtk0LcPaB-74" value="" style="endArrow=none;html=1;rounded=0;fontSize=12;startSize=8;endSize=8;curved=1;" edge="1" parent="1">
          <mxGeometry width="50" height="50" relative="1" as="geometry">
            <mxPoint x="682" y="-177" as="sourcePoint" />
            <mxPoint x="774" y="-177" as="targetPoint" />
          </mxGeometry>
        </mxCell>
        <mxCell id="4hQjekHiKJBVtk0LcPaB-75" value="20.125" style="text;html=1;align=center;verticalAlign=middle;whiteSpace=wrap;rounded=0;fontSize=16;" vertex="1" parent="1">
          <mxGeometry x="672" y="-208" width="60" height="30" as="geometry" />
        </mxCell>
        <mxCell id="4hQjekHiKJBVtk0LcPaB-76" value="21.125" style="text;html=1;align=center;verticalAlign=middle;whiteSpace=wrap;rounded=0;fontSize=16;" vertex="1" parent="1">
          <mxGeometry x="723" y="-208" width="60" height="30" as="geometry" />
        </mxCell>
        <mxCell id="4hQjekHiKJBVtk0LcPaB-77" value="20.125" style="text;html=1;align=center;verticalAlign=middle;whiteSpace=wrap;rounded=0;fontSize=16;" vertex="1" parent="1">
          <mxGeometry x="672" y="-178" width="60" height="30" as="geometry" />
        </mxCell>
        <mxCell id="4hQjekHiKJBVtk0LcPaB-78" value="21.125" style="text;html=1;align=center;verticalAlign=middle;whiteSpace=wrap;rounded=0;fontSize=16;" vertex="1" parent="1">
          <mxGeometry x="723" y="-178" width="60" height="30" as="geometry" />
        </mxCell>
      </root>
    </mxGraphModel>
  </diagram>
</mxfile>
